<svg xmlns="http://www.w3.org/2000/svg" viewBox="0 0 100 100" preserveAspectRatio="xMidYMid meet" fill="none" aria-hidden="true" color="#459BFF" stroke="currentColor" stroke-width="2" stroke-linecap="butt" stroke-linejoin="round"><defs><linearGradient id="energy" x1="0" y1="0" x2="0" y2="1"><stop offset="0" stop-color="currentColor" stop-opacity=".18"/><stop offset=".65" stop-color="currentColor" stop-opacity=".85"/><stop offset="1" stop-color="currentColor"/></linearGradient></defs><rect x="4" y="4" width="92" height="92" rx="20" fill="#171D26" stroke="#394350" stroke-width=".6"/><g transform="translate(7 7) scale(.86)"><path d="M8.00 47.00 L8.00 52.64" opacity="0.85" stroke-width="1.15"/><path d="M10.21 47.00 L10.21 52.64" opacity="0.85" stroke-width="1.15"/><path d="M12.42 46.97 L12.42 52.66" opacity="0.85" stroke-width="1.15"/><path d="M14.63 46.93 L14.63 52.70" opacity="0.85" stroke-width="1.15"/><path d="M16.84 46.74 L16.84 52.87" opacity="0.85" stroke-width="1.15"/><path d="M19.05 46.64 L19.05 52.96" opacity="0.85" stroke-width="1.15"/><path d="M21.26 45.29 L21.26 54.15" opacity="0.85" stroke-width="1.15"/><path d="M23.47 44.60 L23.47 54.75" opacity="0.85" stroke-width="1.15"/><path d="M25.68 41.80 L25.68 57.21" opacity="0.85" stroke-width="1.15"/><path d="M27.89 39.13 L27.89 59.56" opacity="0.85" stroke-width="1.15"/><path d="M30.11 35.45 L30.11 62.81" opacity="0.85" stroke-width="1.15"/><path d="M32.32 35.44 L32.32 62.81" opacity="0.85" stroke-width="1.15"/><path d="M34.53 23.36 L34.53 73.44" opacity="0.85" stroke-width="1.15"/><path d="M36.74 28.07 L36.74 69.30" opacity="0.85" stroke-width="1.15"/><path d="M38.95 21.57 L38.95 75.02" opacity="0.85" stroke-width="1.15"/><path d="M41.16 32.31 L41.16 65.56" opacity="0.85" stroke-width="1.15"/><path d="M43.37 32.98 L43.37 64.98" opacity="0.85" stroke-width="1.15"/><path d="M45.58 42.35 L45.58 56.73" opacity="0.85" stroke-width="1.15"/><path d="M47.79 44.19 L47.79 55.11" opacity="0.85" stroke-width="1.15"/><path d="M50.00 44.63 L50.00 54.73" opacity="0.85" stroke-width="1.15"/><path d="M52.21 45.00 L52.21 54.40" opacity="0.85" stroke-width="1.15"/><path d="M54.42 44.87 L54.42 54.52" opacity="0.85" stroke-width="1.15"/><path d="M56.63 40.98 L56.63 57.93" opacity="0.85" stroke-width="1.15"/><path d="M58.84 38.96 L58.84 59.71" opacity="0.85" stroke-width="1.15"/><path d="M61.05 38.45 L61.05 60.17" opacity="0.85" stroke-width="1.15"/><path d="M63.26 35.84 L63.26 62.46" opacity="0.85" stroke-width="1.15"/><path d="M65.47 35.76 L65.47 62.54" opacity="0.85" stroke-width="1.15"/><path d="M67.68 43.11 L67.68 56.06" opacity="0.85" stroke-width="1.15"/><path d="M69.89 44.70 L69.89 54.66" opacity="0.85" stroke-width="1.15"/><path d="M72.11 46.25 L72.11 53.30" opacity="0.85" stroke-width="1.15"/><path d="M74.32 44.75 L74.32 54.62" opacity="0.85" stroke-width="1.15"/><path d="M76.53 45.04 L76.53 54.37" opacity="0.85" stroke-width="1.15"/><path d="M78.74 42.12 L78.74 56.94" opacity="0.85" stroke-width="1.15"/><path d="M80.95 44.87 L80.95 54.51" opacity="0.85" stroke-width="1.15"/><path d="M83.16 45.42 L83.16 54.03" opacity="0.85" stroke-width="1.15"/><path d="M85.37 46.45 L85.37 53.12" opacity="0.85" stroke-width="1.15"/><path d="M87.58 46.89 L87.58 52.74" opacity="0.85" stroke-width="1.15"/><path d="M89.79 46.98 L89.79 52.65" opacity="0.85" stroke-width="1.15"/><path d="M92.00 47.00 L92.00 52.64" opacity="0.85" stroke-width="1.15"/></g></svg>